# xmcd
#
# Track frame offsets:
# 150
# 13925
# 31127
# 52307
# 67632
# 84272
# 98875
# 114572
# 128075
# 147755
# 159695
# 177202
# 194427
#
# Disc length: 2788 seconds
#
#
# Revision: 0
# Processed by: cddbd v1.5.2PL0 Copyright (c) Steve Scherf et al.
# Submitted via: FreeRIP 2.945 
#
DISCID=aa0ae20d
DTITLE=Marcos e Adriana - Felicidade a gente vê na cara
DYEAR=2004
DGENRE=country
TTITLE0=O que a gente gosta
TTITLE1=Dê uma chance pra nós
TTITLE2=Infidelidade
TTITLE3=Felicidade a gente vê na cara
TTITLE4=Noite de sexta-feira
TTITLE5=Fogo
TTITLE6=Recomeçar
TTITLE7=Pra incendiar bailão
TTITLE8=Passo errado
TTITLE9=Vida de Cowboy
TTITLE10=Noite solidão
TTITLE11=Ao som de Marcos e Adriana( ao vivo )
TTITLE12=Vidda de cowboy ( ao vivo )
EXTD=
EXTT0=
EXTT1=
EXTT2=
EXTT3=
EXTT4=
EXTT5=
EXTT6=
EXTT7=
EXTT8=
EXTT9=
EXTT10=
EXTT11=
EXTT12=
PLAYORDER=
